#!OML:ASF H:\Terrain\Patient Classification 1\Takeo\Monday\TakeoMonday.ASF
:FULLY-SPECIFIED
:DEGREES
844
root 18.3874 16.6979 -0.4715 -8.4586 -27.1431 4.60357
lowerback 10.8005 6.52173 9.31893
upperback 6.67219 9.32173 6.11146
thorax 1.49128 4.77381 0.42373
lowerneck -13.8112 -2.94412 -1.07039
upperneck 7.84721 -3.88108 1.23084
head 4.64041 -1.85801 0.246708
rclavicle -6.48038e-014 6.99722e-014
rhumerus 45.2425 0.913398 -97.4697
rradius 31.8243
rwrist -38.6172
rhand -55.673 36.9498
rfingers 7.12502
rthumb -28.0237 9.02231
lclavicle -6.48038e-014 6.99722e-014
lhumerus 37.8753 -15.1444 49.6558
lradius 72.644
lwrist 24.3851
lhand -21.7486 21.3029
lfingers 7.12502
lthumb 4.65152 51.2318
rfemur 4.02512 -19.9954 2.30422
rtibia 50.6025
rfoot -28.2114 -38.3211
rtoes 10.077
lfemur -22.5971 -6.67511 -26.0763
ltibia 47.0937
lfoot -14.1083 -1.84915
ltoes -6.02661
845
root 18.3631 16.7027 -0.437988 -8.7273 -26.0626 4.84439
lowerback 10.4646 6.56265 9.13992
upperback 6.78844 9.31538 5.85965
thorax 1.8082 4.78795 0.315327
lowerneck -14.0028 -3.38342 -1.12396
upperneck 7.63961 -4.52306 1.85882
head 4.63058 -2.13325 0.396615
rclavicle 1.51076e-014 -4.45278e-014
rhumerus 46.1827 1.98926 -98.6249
rradius 32.079
rwrist -37.7683
rhand -55.2264 35.855
rfingers 7.12502
rthumb -27.5967 7.85849
lclavicle 1.51076e-014 -4.45278e-014
lhumerus 38.823 -14.5551 48.7393
lradius 72.6219
lwrist 24.3416
lhand -21.1077 20.8355
lfingers 7.12502
lthumb 5.27037 50.7499
rfemur 4.83357 -20.1625 1.90693
rtibia 50.4917
rfoot -28.2017 -38.5343
rtoes 9.97252
lfemur -22.085 -7.54942 -26.5614
ltibia 46.8017
lfoot -14.0317 -2.01257
ltoes -5.19876
846
root 18.3384 16.7152 -0.413657 -8.91043 -25.0218 5.08412
lowerback 10.2462 6.61725 8.88989
upperback 6.80815 9.34874 5.64353
thorax 1.94244 4.81068 0.252595
lowerneck -14.2947 -3.71733 -1.38881
upperneck 7.63716 -5.01631 2.75419
head 4.7156 -2.32129 0.670013
rclavicle -7.11649e-014 2.54444e-014
rhumerus 46.6549 3.14906 -99.719
rradius 32.9137
rwrist -36.8082
rhand -55.195 35.3697
rfingers 7.12502
rthumb -27.5666 7.36843
lclavicle -7.11649e-014 2.54444e-014
lhumerus 39.6206 -14.0204 48.0766
lradius 72.5828
lwrist 24.2789
lhand -20.3708 20.1861
lfingers 7.12502
lthumb 5.98179 50.0817
rfemur 5.49323 -20.2628 1.64995
rtibia 50.2604
rfoot -28.1576 -38.8455
rtoes 10.1287
lfemur -21.7098 -8.29966 -26.9871
ltibia 46.3719
lfoot -13.5741 -2.39338
ltoes -2.96716
847
root 18.3128 16.735 -0.395543 -8.83484 -24.1411 5.07813
lowerback 10.2905 6.75685 8.68697
upperback 6.49031 9.56279 5.57648
thorax 1.56827 4.89865 0.238464
lowerneck -14.3299 -4.0719 -1.37658
upperneck 7.88502 -5.53749 3.07831
head 4.81876 -2.55096 0.72114
rclavicle -7.55382e-014 2.54444e-014
rhumerus 47.0172 4.93892 -99.1782
rradius 33.1937
rwrist -37.2713
rhand -54.9553 34.1404
rfingers 7.12502
rthumb -27.3374 6.10274
lclavicle -7.55382e-014 2.54444e-014
lhumerus 40.0896 -13.861 47.6361
lradius 72.7292
lwrist 24.3985
lhand -20.2429 20.0637
lfingers 7.12502
lthumb 6.10533 49.9558
rfemur 5.87942 -20.1366 1.87009
rtibia 49.9139
rfoot -28.4255 -39.1235
rtoes 11.9176
lfemur -21.566 -8.84818 -27.1242
ltibia 45.9111
lfoot -12.944 -2.59004
ltoes -2.70388
848
root 18.2876 16.7594 -0.368933 -8.65153 -23.3828 4.78968
lowerback 10.2835 6.84585 8.73697
upperback 6.12035 9.7257 5.61453
thorax 1.19069 4.96327 0.206071
lowerneck -13.8293 -4.44806 -1.54532
upperneck 7.82999 -6.05038 3.40939
head 4.74789 -2.79167 0.817219
rclavicle -6.22196e-014 -2.54444e-014
rhumerus 47.6395 6.90116 -98.4146
rradius 32.8025
rwrist -38.1186
rhand -54.247 33.6287
rfingers 7.12502
rthumb -26.6598 5.48607
lclavicle -6.22196e-014 -2.54444e-014
lhumerus 40.2413 -13.6927 47.1988
lradius 73.0096
lwrist 24.6629
lhand -20.3645 20.2729
lfingers 7.12502
lthumb 5.9879 50.1683
rfemur 6.3077 -19.9404 2.33837
rtibia 49.5493
rfoot -28.3783 -39.5462
rtoes 12.7433
lfemur -21.3201 -9.36103 -26.9961
ltibia 45.472
lfoot -12.6737 -2.5961
ltoes -4.45686
849
root 18.2594 16.7759 -0.333978 -8.54484 -22.5131 4.54209
lowerback 10.0912 6.92747 8.72136
upperback 5.97791 9.82882 5.64482
thorax 1.14174 5.01159 0.251163
lowerneck -13.5018 -4.85069 -2.05063
upperneck 7.42822 -6.58516 4.30452
head 4.63244 -3.02051 1.1394
rclavicle -3.12092e-014 5.725e-014
rhumerus 48.4206 8.90723 -97.3546
rradius 33.0997
rwrist -39.2056
rhand -53.9141 34.0239
rfingers 7.12502
rthumb -26.3411 5.83316
lclavicle -3.12092e-014 5.725e-014
lhumerus 40.6467 -13.3338 46.805
lradius 73.2529
lwrist 24.8274
lhand -20.5096 20.5731
lfingers 7.12502
lthumb 5.84778 50.4724
rfemur 6.91043 -19.966 2.64225
rtibia 49.198
rfoot -27.8681 -40.1445
rtoes 11.8378
lfemur -20.9576 -9.94611 -26.9283
ltibia 45.069
lfoot -12.6654 -2.75558
ltoes -5.40136
850
root 18.2345 16.7826 -0.305233 -8.56734 -21.4798 4.78479
lowerback 9.86216 7.04159 8.32415
upperback 5.9273 9.93467 5.47646
thorax 1.17701 5.06216 0.303928
lowerneck -13.5928 -5.24064 -2.06065
upperneck 7.12788 -7.15076 4.85649
head 4.59453 -3.26556 1.26446
rclavicle -7.83212e-014 -5.08889e-014
rhumerus 49.5841 10.9529 -95.7739
rradius 33.4671
rwrist -40.3984
rhand -54.1639 34.1736
rfingers 7.12502
rthumb -26.5802 6.01888
lclavicle -7.83212e-014 -5.08889e-014
lhumerus 41.3819 -12.8192 46.5203
lradius 73.33
lwrist 24.8555
lhand -21.3361 20.4806
lfingers 7.12502
lthumb 5.04982 50.4005
rfemur 7.45903 -20.1305 2.45329
rtibia 48.843
rfoot -27.7061 -40.3662
rtoes 11.2618
lfemur -20.7405 -10.5652 -27.3444
ltibia 44.7285
lfoot -12.3936 -3.1136
ltoes -4.47086
851
root 18.2114 16.7926 -0.282181 -8.57709 -20.5896 5.19875
lowerback 9.57588 7.15415 7.9407
upperback 5.84158 10.0376 5.20822
thorax 1.22644 5.11279 0.25461
lowerneck -13.372 -5.57018 -2.09751
upperneck 6.78217 -7.61556 5.27787
head 4.48727 -3.47763 1.37002
rclavicle -5.96354e-014 6.36111e-014
rhumerus 50.6735 12.81 -94.7259
rradius 33.5608
rwrist -40.8965
rhand -54.5067 34.4265
rfingers 7.12502
rthumb -26.9082 6.32195
lclavicle -5.96354e-014 6.36111e-014
lhumerus 42.0018 -12.2654 46.2526
lradius 73.4241
lwrist 24.9158
lhand -22.766 20.1843
lfingers 7.12502
lthumb 3.66911 50.1324
rfemur 7.8413 -20.0872 2.19163
rtibia 48.4714
rfoot -27.9587 -40.2686
rtoes 11.0169
lfemur -20.6695 -11.1644 -27.8654
ltibia 44.4725
lfoot -11.8711 -3.51065
ltoes -1.03844
852
root 18.1867 16.8157 -0.256209 -8.31279 -20.0327 4.66181
lowerback 9.44757 7.27534 8.53033
upperback 5.66829 10.2429 5.17797
thorax 1.23863 5.22599 -0.0841632
lowerneck -13.0739 -5.93794 -2.65255
upperneck 6.55669 -8.091 6.11568
head 4.44715 -3.68401 1.68325
rclavicle -4.57205e-015 2.8625e-014
rhumerus 51.3598 14.5763 -93.8056
rradius 34.2008
rwrist -41.8505
rhand -54.0211 34.3509
rfingers 7.12502
rthumb -26.4436 6.17556
lclavicle -4.57205e-015 2.8625e-014
lhumerus 42.4854 -11.8178 46.0023
lradius 73.6198
lwrist 25.2943
lhand -22.9122 20.3832
lfingers 7.12502
lthumb 3.52787 50.3337
rfemur 8.18731 -19.8028 3.06192
rtibia 48.0712
rfoot -28.5799 -40.2354
rtoes 11.3173
lfemur -20.5442 -11.6899 -27.3513
ltibia 44.281
lfoot -11.7541 -3.78757
ltoes 0.508656
853
root 18.1671 16.8375 -0.22422 -7.9583 -19.4932 3.65844
lowerback 9.20997 7.26461 9.59344
upperback 5.56628 10.2827 5.22039
thorax 1.45335 5.27237 -0.554293
lowerneck -13.2358 -6.21075 -2.61747
upperneck 6.72383 -8.50182 6.41295
head 4.55592 -3.85881 1.72642
rclavicle -1.58928e-013 -2.54444e-014
rhumerus 52.213 16.642 -92.6201
rradius 35.143
rwrist -43.3509
rhand -53.2691 35.464
rfingers 7.12502
rthumb -25.7235 7.18244
lclavicle -1.58928e-013 -2.54444e-014
lhumerus 42.7821 -11.1546 45.5454
lradius 73.7091
lwrist 25.7377
lhand -22.394 20.542
lfingers 7.12502
lthumb 4.02827 50.4836
rfemur 8.59983 -19.6674 4.35637
rtibia 47.6484
rfoot -28.5748 -40.6283
rtoes 11.2743
lfemur -20.3386 -12.1469 -26.4105
ltibia 44.1181
lfoot -11.9654 -4.01754
ltoes -0.651298
